<svg xmlns="http://www.w3.org/2000/svg" xmlns:xlink="http://www.w3.org/1999/xlink" x="0" y="0" enable-background="new 0 0 63 63" version="1.1" viewBox="0 0 63 63" xml:space="preserve"><g id="Background" display="none"><rect width="150" height="70" x="-2569" y="-535" fill="gray" display="inline"/><rect width="150" height="70" x="-2419" y="-535" fill="#666" display="inline"/><rect width="150" height="70" x="-2269" y="-535" fill="gray" display="inline"/><rect width="150" height="70" x="-2119" y="-535" fill="#666" display="inline"/><rect width="150" height="70" x="-1969" y="-535" fill="gray" display="inline"/><rect width="150" height="70" x="-2569" y="-675" fill="gray" display="inline"/><rect width="150" height="70" x="-2419" y="-675" fill="#666" display="inline"/><rect width="150" height="70" x="-2269" y="-675" fill="gray" display="inline"/><rect width="150" height="70" x="-2119" y="-675" fill="#666" display="inline"/><rect width="150" height="70" x="-1969" y="-675" fill="gray" display="inline"/><rect width="150" height="70" x="-2569" y="-605" fill="#666" display="inline"/><rect width="150" height="70" x="-2419" y="-605" fill="gray" display="inline"/><rect width="150" height="70" x="-2269" y="-605" fill="#666" display="inline"/><rect width="150" height="70" x="-2119" y="-605" fill="gray" display="inline"/><rect width="150" height="70" x="-1969" y="-605" fill="#666" display="inline"/></g><g id="Content"><rect width="0" height="3" x="-4406" y="1888" fill="#FC5EA6"/><g><path fill="#FFF" stroke="#EEE" stroke-miterlimit="10" stroke-width="2" d="M1,31.1C1,48,14.1,62,31,62 c16.9,0,31-14.1,31-31C62,14.1,47.9,1,31,1C14.1,1,1,14.2,1,31.1z"/><g><g><path fill="#D2E1ED" d="M35,34.9v-1.1c1-1,2.7-3.7,2.7-6.9c0-4.9-1.7-7.7-5.7-8v0c0,0-0.2,0-0.2,0c-0.1,0-0.2,0-0.4,0 c-0.1,0-0.2,0-0.3,0c-0.1,0-0.1,0-0.1,0v0c-4,0.4-5.7,3.1-5.7,8c0,3.2,1.7,5.9,2.7,6.9v1.1c0,2.2-9,2.2-9,7V44h25v-2.1 C44,37.1,35,37.1,35,34.9z"/></g><g><circle cx="44.2" cy="43.4" r="7.3" fill="#DC4B38" stroke="#FFF" stroke-miterlimit="10"/><rect width="8" height="2" x="40" y="42" fill="#FFF"/></g></g></g></g></svg>